<svg width="428" height="47" viewBox="0 0 428 47" fill="none" xmlns="http://www.w3.org/2000/svg">
<g clip-path="url(#clip0_1_137)">
<path fill-rule="evenodd" clip-rule="evenodd" d="M6.70597 3.38906V0.597961H0.367798V3.38906V9.36997V19.7369V26.1165V26.3159C0.367798 37.4366 9.32426 46.4516 20.3726 46.4516C31.421 46.4516 40.3774 37.4366 40.3774 26.3159V26.1165V19.7369V9.36997V3.38906V0.597961H34.0393V3.38906H23.3436V2.99032V0.597961H17.0055V2.99032V3.38906H6.70597ZM17.0055 39.6513C11.1416 38.1559 6.7887 32.845 6.70713 26.4974C7.38263 26.6621 8.04601 26.8796 8.69109 27.1485C10.3252 27.8298 11.81 28.8283 13.0606 30.0872C14.3113 31.346 15.3034 32.8405 15.9803 34.4853C16.6544 36.1233 17.0026 37.8785 17.0055 39.6513ZM17.5424 25.5762C18.5349 26.5751 19.4166 27.675 20.1746 28.8561C20.9325 27.675 21.8142 26.5751 22.8068 25.5762C23.7992 24.5771 24.892 23.6896 26.0653 22.9267C24.892 22.1638 23.7992 21.2762 22.8068 20.2773C21.8142 19.2783 20.9325 18.1785 20.1746 16.9974C19.4166 18.1785 18.5349 19.2783 17.5424 20.2773C16.5499 21.2762 15.4572 22.1638 14.2838 22.9267C15.4572 23.6896 16.5499 24.5771 17.5424 25.5762ZM34.0391 26.407C33.9969 32.9369 29.4346 38.387 23.3436 39.746V39.6733C23.3436 37.8929 23.692 36.1301 24.3689 34.4853C25.0457 32.8405 26.0378 31.346 27.2885 30.0872C28.5391 28.8283 30.0239 27.8298 31.6581 27.1485C32.4291 26.827 33.2262 26.5791 34.0391 26.407ZM16.525 9.7687C16.377 10.3116 16.1952 10.8458 15.9803 11.3681C15.3034 13.0128 14.3113 14.5073 13.0606 15.7662C11.81 17.025 10.3252 18.0236 8.69109 18.705C8.04563 18.974 7.38186 19.1916 6.70597 19.3562V9.7687H16.525ZM34.0393 19.4464V9.7687H23.8241C23.9722 10.3116 24.154 10.8458 24.3689 11.3681C25.0457 13.0128 26.0378 14.5073 27.2885 15.7662C28.5391 17.025 30.0239 18.0236 31.6581 18.705C32.4291 19.0264 33.2265 19.2743 34.0393 19.4464Z" fill="#09C382"/>
</g>
<path d="M81.5568 20.875H76.5795C76.4886 20.2311 76.303 19.6591 76.0227 19.1591C75.7424 18.6515 75.3826 18.2197 74.9432 17.8636C74.5038 17.5076 73.9962 17.2348 73.4205 17.0455C72.8523 16.8561 72.2348 16.7614 71.5682 16.7614C70.3636 16.7614 69.3144 17.0606 68.4205 17.6591C67.5265 18.25 66.8333 19.1136 66.3409 20.25C65.8485 21.3788 65.6023 22.75 65.6023 24.3636C65.6023 26.0227 65.8485 27.4167 66.3409 28.5455C66.8409 29.6742 67.5379 30.5265 68.4318 31.1023C69.3258 31.678 70.3598 31.9659 71.5341 31.9659C72.1932 31.9659 72.803 31.8788 73.3636 31.7045C73.9318 31.5303 74.4356 31.2765 74.875 30.9432C75.3144 30.6023 75.678 30.1894 75.9659 29.7045C76.2614 29.2197 76.4659 28.6667 76.5795 28.0455L81.5568 28.0682C81.428 29.1364 81.1061 30.1667 80.5909 31.1591C80.0833 32.1439 79.3977 33.0265 78.5341 33.8068C77.678 34.5795 76.6553 35.1932 75.4659 35.6477C74.2841 36.0947 72.947 36.3182 71.4545 36.3182C69.3788 36.3182 67.5227 35.8485 65.8864 34.9091C64.2576 33.9697 62.9697 32.6098 62.0227 30.8295C61.0833 29.0492 60.6136 26.8939 60.6136 24.3636C60.6136 21.8258 61.0909 19.6667 62.0455 17.8864C63 16.1061 64.2955 14.75 65.9318 13.8182C67.5682 12.8788 69.4091 12.4091 71.4545 12.4091C72.803 12.4091 74.053 12.5985 75.2045 12.9773C76.3636 13.3561 77.3902 13.9091 78.2841 14.6364C79.178 15.3561 79.9053 16.2386 80.4659 17.2841C81.0341 18.3295 81.3977 19.5265 81.5568 20.875ZM89.9716 36.3295C88.858 36.3295 87.8655 36.1364 86.9943 35.75C86.1231 35.3561 85.4337 34.7765 84.9261 34.0114C84.4261 33.2386 84.1761 32.2765 84.1761 31.125C84.1761 30.1553 84.3542 29.3409 84.7102 28.6818C85.0663 28.0227 85.5511 27.4924 86.1648 27.0909C86.7784 26.6894 87.4754 26.3864 88.2557 26.1818C89.0436 25.9773 89.8693 25.8333 90.733 25.75C91.7481 25.6439 92.5663 25.5455 93.1875 25.4545C93.8087 25.3561 94.2595 25.2121 94.5398 25.0227C94.8201 24.8333 94.9602 24.553 94.9602 24.1818V24.1136C94.9602 23.3939 94.733 22.8371 94.2784 22.4432C93.8314 22.0492 93.1951 21.8523 92.3693 21.8523C91.4981 21.8523 90.8049 22.0455 90.2898 22.4318C89.7746 22.8106 89.4337 23.2879 89.267 23.8636L84.7898 23.5C85.017 22.4394 85.464 21.5227 86.1307 20.75C86.7973 19.9697 87.6572 19.3712 88.7102 18.9545C89.7708 18.5303 90.9981 18.3182 92.392 18.3182C93.3617 18.3182 94.2898 18.4318 95.1761 18.6591C96.0701 18.8864 96.8617 19.2386 97.5511 19.7159C98.2481 20.1932 98.7973 20.8068 99.1989 21.5568C99.6004 22.2992 99.8011 23.1894 99.8011 24.2273V36H95.2102V33.5795H95.0739C94.7936 34.125 94.4186 34.6061 93.9489 35.0227C93.4792 35.4318 92.9148 35.7538 92.2557 35.9886C91.5966 36.2159 90.8352 36.3295 89.9716 36.3295ZM91.358 32.9886C92.0701 32.9886 92.6989 32.8485 93.2443 32.5682C93.7898 32.2803 94.2178 31.8939 94.5284 31.4091C94.839 30.9242 94.9943 30.375 94.9943 29.7614V27.9091C94.8428 28.0076 94.6345 28.0985 94.3693 28.1818C94.1117 28.2576 93.8201 28.3295 93.4943 28.3977C93.1686 28.4583 92.8428 28.5152 92.517 28.5682C92.1913 28.6136 91.8958 28.6553 91.6307 28.6932C91.0625 28.7765 90.5663 28.9091 90.142 29.0909C89.7178 29.2727 89.3883 29.5189 89.1534 29.8295C88.9186 30.1326 88.8011 30.5114 88.8011 30.9659C88.8011 31.625 89.0398 32.1288 89.517 32.4773C90.0019 32.8182 90.6155 32.9886 91.358 32.9886ZM103.557 36V18.5455H108.25V21.5909H108.432C108.75 20.5076 109.284 19.6894 110.034 19.1364C110.784 18.5758 111.648 18.2955 112.625 18.2955C112.867 18.2955 113.129 18.3106 113.409 18.3409C113.689 18.3712 113.936 18.4129 114.148 18.4659V22.7614C113.92 22.6932 113.606 22.6326 113.205 22.5795C112.803 22.5265 112.436 22.5 112.102 22.5C111.39 22.5 110.754 22.6553 110.193 22.9659C109.64 23.2689 109.201 23.6932 108.875 24.2386C108.557 24.7841 108.398 25.4129 108.398 26.125V36H103.557ZM123.793 36.3409C121.997 36.3409 120.452 35.9773 119.156 35.25C117.868 34.5152 116.876 33.4773 116.179 32.1364C115.482 30.7879 115.134 29.1932 115.134 27.3523C115.134 25.5568 115.482 23.9811 116.179 22.625C116.876 21.2689 117.857 20.2121 119.122 19.4545C120.395 18.697 121.887 18.3182 123.599 18.3182C124.751 18.3182 125.823 18.5038 126.815 18.875C127.815 19.2386 128.687 19.7879 129.429 20.5227C130.179 21.2576 130.762 22.1818 131.179 23.2955C131.596 24.4015 131.804 25.697 131.804 27.1818V28.5114H117.065V25.5114H127.247C127.247 24.8144 127.096 24.197 126.793 23.6591C126.49 23.1212 126.069 22.7008 125.531 22.3977C125.001 22.0871 124.384 21.9318 123.679 21.9318C122.944 21.9318 122.293 22.1023 121.724 22.4432C121.164 22.7765 120.724 23.2273 120.406 23.7955C120.088 24.3561 119.925 24.9811 119.918 25.6705V28.5227C119.918 29.3864 120.077 30.1326 120.395 30.7614C120.721 31.3902 121.179 31.875 121.77 32.2159C122.361 32.5568 123.062 32.7273 123.872 32.7273C124.41 32.7273 124.902 32.6515 125.349 32.5C125.796 32.3485 126.179 32.1212 126.497 31.8182C126.815 31.5152 127.058 31.1439 127.224 30.7045L131.702 31C131.474 32.0758 131.009 33.0152 130.304 33.8182C129.607 34.6136 128.705 35.2348 127.599 35.6818C126.501 36.1212 125.232 36.3409 123.793 36.3409ZM142.918 36.3409C141.122 36.3409 139.577 35.9773 138.281 35.25C136.993 34.5152 136.001 33.4773 135.304 32.1364C134.607 30.7879 134.259 29.1932 134.259 27.3523C134.259 25.5568 134.607 23.9811 135.304 22.625C136.001 21.2689 136.982 20.2121 138.247 19.4545C139.52 18.697 141.012 18.3182 142.724 18.3182C143.876 18.3182 144.948 18.5038 145.94 18.875C146.94 19.2386 147.812 19.7879 148.554 20.5227C149.304 21.2576 149.887 22.1818 150.304 23.2955C150.721 24.4015 150.929 25.697 150.929 27.1818V28.5114H136.19V25.5114H146.372C146.372 24.8144 146.221 24.197 145.918 23.6591C145.615 23.1212 145.194 22.7008 144.656 22.3977C144.126 22.0871 143.509 21.9318 142.804 21.9318C142.069 21.9318 141.418 22.1023 140.849 22.4432C140.289 22.7765 139.849 23.2273 139.531 23.7955C139.213 24.3561 139.05 24.9811 139.043 25.6705V28.5227C139.043 29.3864 139.202 30.1326 139.52 30.7614C139.846 31.3902 140.304 31.875 140.895 32.2159C141.486 32.5568 142.187 32.7273 142.997 32.7273C143.535 32.7273 144.027 32.6515 144.474 32.5C144.921 32.3485 145.304 32.1212 145.622 31.8182C145.94 31.5152 146.183 31.1439 146.349 30.7045L150.827 31C150.599 32.0758 150.134 33.0152 149.429 33.8182C148.732 34.6136 147.83 35.2348 146.724 35.6818C145.626 36.1212 144.357 36.3409 142.918 36.3409ZM154.088 36V18.5455H158.781V21.5909H158.963C159.281 20.5076 159.815 19.6894 160.565 19.1364C161.315 18.5758 162.179 18.2955 163.156 18.2955C163.399 18.2955 163.66 18.3106 163.94 18.3409C164.221 18.3712 164.467 18.4129 164.679 18.4659V22.7614C164.452 22.6932 164.137 22.6326 163.736 22.5795C163.334 22.5265 162.967 22.5 162.634 22.5C161.921 22.5 161.285 22.6553 160.724 22.9659C160.171 23.2689 159.732 23.6932 159.406 24.2386C159.088 24.7841 158.929 25.4129 158.929 26.125V36H154.088ZM173.793 16.7841V12.7273H192.906V16.7841H185.781V36H180.918V16.7841H173.793ZM194.151 36V18.5455H198.844V21.5909H199.026C199.344 20.5076 199.878 19.6894 200.628 19.1364C201.378 18.5758 202.241 18.2955 203.219 18.2955C203.461 18.2955 203.723 18.3106 204.003 18.3409C204.283 18.3712 204.529 18.4129 204.741 18.4659V22.7614C204.514 22.6932 204.2 22.6326 203.798 22.5795C203.397 22.5265 203.029 22.5 202.696 22.5C201.984 22.5 201.348 22.6553 200.787 22.9659C200.234 23.2689 199.795 23.6932 199.469 24.2386C199.151 24.7841 198.991 25.4129 198.991 26.125V36H194.151ZM211.722 36.3295C210.608 36.3295 209.616 36.1364 208.744 35.75C207.873 35.3561 207.184 34.7765 206.676 34.0114C206.176 33.2386 205.926 32.2765 205.926 31.125C205.926 30.1553 206.104 29.3409 206.46 28.6818C206.816 28.0227 207.301 27.4924 207.915 27.0909C208.528 26.6894 209.225 26.3864 210.006 26.1818C210.794 25.9773 211.619 25.8333 212.483 25.75C213.498 25.6439 214.316 25.5455 214.938 25.4545C215.559 25.3561 216.009 25.2121 216.29 25.0227C216.57 24.8333 216.71 24.553 216.71 24.1818V24.1136C216.71 23.3939 216.483 22.8371 216.028 22.4432C215.581 22.0492 214.945 21.8523 214.119 21.8523C213.248 21.8523 212.555 22.0455 212.04 22.4318C211.525 22.8106 211.184 23.2879 211.017 23.8636L206.54 23.5C206.767 22.4394 207.214 21.5227 207.881 20.75C208.547 19.9697 209.407 19.3712 210.46 18.9545C211.521 18.5303 212.748 18.3182 214.142 18.3182C215.112 18.3182 216.04 18.4318 216.926 18.6591C217.82 18.8864 218.612 19.2386 219.301 19.7159C219.998 20.1932 220.547 20.8068 220.949 21.5568C221.35 22.2992 221.551 23.1894 221.551 24.2273V36H216.96V33.5795H216.824C216.544 34.125 216.169 34.6061 215.699 35.0227C215.229 35.4318 214.665 35.7538 214.006 35.9886C213.347 36.2159 212.585 36.3295 211.722 36.3295ZM213.108 32.9886C213.82 32.9886 214.449 32.8485 214.994 32.5682C215.54 32.2803 215.968 31.8939 216.278 31.4091C216.589 30.9242 216.744 30.375 216.744 29.7614V27.9091C216.593 28.0076 216.384 28.0985 216.119 28.1818C215.862 28.2576 215.57 28.3295 215.244 28.3977C214.919 28.4583 214.593 28.5152 214.267 28.5682C213.941 28.6136 213.646 28.6553 213.381 28.6932C212.813 28.7765 212.316 28.9091 211.892 29.0909C211.468 29.2727 211.138 29.5189 210.903 29.8295C210.669 30.1326 210.551 30.5114 210.551 30.9659C210.551 31.625 210.79 32.1288 211.267 32.4773C211.752 32.8182 212.366 32.9886 213.108 32.9886ZM225.307 36V18.5455H230.148V36H225.307ZM227.739 16.2955C227.019 16.2955 226.402 16.0568 225.886 15.5795C225.379 15.0947 225.125 14.5152 225.125 13.8409C225.125 13.1742 225.379 12.6023 225.886 12.125C226.402 11.6402 227.019 11.3977 227.739 11.3977C228.458 11.3977 229.072 11.6402 229.58 12.125C230.095 12.6023 230.352 13.1742 230.352 13.8409C230.352 14.5152 230.095 15.0947 229.58 15.5795C229.072 16.0568 228.458 16.2955 227.739 16.2955ZM238.866 25.9091V36H234.026V18.5455H238.639V21.625H238.844C239.23 20.6098 239.878 19.8068 240.787 19.2159C241.696 18.6174 242.798 18.3182 244.094 18.3182C245.306 18.3182 246.363 18.5833 247.264 19.1136C248.166 19.6439 248.866 20.4015 249.366 21.3864C249.866 22.3636 250.116 23.5303 250.116 24.8864V36H245.276V25.75C245.283 24.6818 245.01 23.8485 244.457 23.25C243.904 22.6439 243.143 22.3409 242.173 22.3409C241.522 22.3409 240.946 22.4811 240.446 22.7614C239.954 23.0417 239.567 23.4508 239.287 23.9886C239.014 24.5189 238.874 25.1591 238.866 25.9091ZM253.932 36V18.5455H258.773V36H253.932ZM256.364 16.2955C255.644 16.2955 255.027 16.0568 254.511 15.5795C254.004 15.0947 253.75 14.5152 253.75 13.8409C253.75 13.1742 254.004 12.6023 254.511 12.125C255.027 11.6402 255.644 11.3977 256.364 11.3977C257.083 11.3977 257.697 11.6402 258.205 12.125C258.72 12.6023 258.977 13.1742 258.977 13.8409C258.977 14.5152 258.72 15.0947 258.205 15.5795C257.697 16.0568 257.083 16.2955 256.364 16.2955ZM267.491 25.9091V36H262.651V18.5455H267.264V21.625H267.469C267.855 20.6098 268.503 19.8068 269.412 19.2159C270.321 18.6174 271.423 18.3182 272.719 18.3182C273.931 18.3182 274.988 18.5833 275.889 19.1136C276.791 19.6439 277.491 20.4015 277.991 21.3864C278.491 22.3636 278.741 23.5303 278.741 24.8864V36H273.901V25.75C273.908 24.6818 273.635 23.8485 273.082 23.25C272.529 22.6439 271.768 22.3409 270.798 22.3409C270.147 22.3409 269.571 22.4811 269.071 22.7614C268.579 23.0417 268.192 23.4508 267.912 23.9886C267.639 24.5189 267.499 25.1591 267.491 25.9091ZM290.42 42.9091C288.852 42.9091 287.508 42.6932 286.386 42.2614C285.273 41.8371 284.386 41.2576 283.727 40.5227C283.068 39.7879 282.64 38.9621 282.443 38.0455L286.92 37.4432C287.057 37.7917 287.273 38.1174 287.568 38.4205C287.864 38.7235 288.254 38.9659 288.739 39.1477C289.231 39.3371 289.83 39.4318 290.534 39.4318C291.587 39.4318 292.455 39.1742 293.136 38.6591C293.826 38.1515 294.17 37.2992 294.17 36.1023V32.9091H293.966C293.754 33.3939 293.436 33.8523 293.011 34.2841C292.587 34.7159 292.042 35.0682 291.375 35.3409C290.708 35.6136 289.913 35.75 288.989 35.75C287.678 35.75 286.485 35.447 285.409 34.8409C284.341 34.2273 283.489 33.2917 282.852 32.0341C282.223 30.7689 281.909 29.1705 281.909 27.2386C281.909 25.2614 282.231 23.6098 282.875 22.2841C283.519 20.9583 284.375 19.9659 285.443 19.3068C286.519 18.6477 287.697 18.3182 288.977 18.3182C289.955 18.3182 290.773 18.4848 291.432 18.8182C292.091 19.1439 292.621 19.553 293.023 20.0455C293.432 20.5303 293.746 21.0076 293.966 21.4773H294.148V18.5455H298.955V36.1705C298.955 37.6553 298.591 38.8977 297.864 39.8977C297.136 40.8977 296.129 41.6477 294.841 42.1477C293.561 42.6553 292.087 42.9091 290.42 42.9091ZM290.523 32.1136C291.303 32.1136 291.962 31.9205 292.5 31.5341C293.045 31.1402 293.462 30.5795 293.75 29.8523C294.045 29.1174 294.193 28.2386 294.193 27.2159C294.193 26.1932 294.049 25.3068 293.761 24.5568C293.473 23.7992 293.057 23.2121 292.511 22.7955C291.966 22.3788 291.303 22.1705 290.523 22.1705C289.727 22.1705 289.057 22.3864 288.511 22.8182C287.966 23.2424 287.553 23.8333 287.273 24.5909C286.992 25.3485 286.852 26.2235 286.852 27.2159C286.852 28.2235 286.992 29.0947 287.273 29.8295C287.561 30.5568 287.973 31.1212 288.511 31.5227C289.057 31.9167 289.727 32.1136 290.523 32.1136ZM330.838 20.875H325.861C325.77 20.2311 325.584 19.6591 325.304 19.1591C325.024 18.6515 324.664 18.2197 324.224 17.8636C323.785 17.5076 323.277 17.2348 322.702 17.0455C322.134 16.8561 321.516 16.7614 320.849 16.7614C319.645 16.7614 318.596 17.0606 317.702 17.6591C316.808 18.25 316.115 19.1136 315.622 20.25C315.13 21.3788 314.884 22.75 314.884 24.3636C314.884 26.0227 315.13 27.4167 315.622 28.5455C316.122 29.6742 316.819 30.5265 317.713 31.1023C318.607 31.678 319.641 31.9659 320.815 31.9659C321.474 31.9659 322.084 31.8788 322.645 31.7045C323.213 31.5303 323.717 31.2765 324.156 30.9432C324.596 30.6023 324.959 30.1894 325.247 29.7045C325.543 29.2197 325.747 28.6667 325.861 28.0455L330.838 28.0682C330.709 29.1364 330.387 30.1667 329.872 31.1591C329.365 32.1439 328.679 33.0265 327.815 33.8068C326.959 34.5795 325.937 35.1932 324.747 35.6477C323.565 36.0947 322.228 36.3182 320.736 36.3182C318.66 36.3182 316.804 35.8485 315.168 34.9091C313.539 33.9697 312.251 32.6098 311.304 30.8295C310.365 29.0492 309.895 26.8939 309.895 24.3636C309.895 21.8258 310.372 19.6667 311.327 17.8864C312.281 16.1061 313.577 14.75 315.213 13.8182C316.849 12.8788 318.69 12.4091 320.736 12.4091C322.084 12.4091 323.334 12.5985 324.486 12.9773C325.645 13.3561 326.671 13.9091 327.565 14.6364C328.459 15.3561 329.187 16.2386 329.747 17.2841C330.315 18.3295 330.679 19.5265 330.838 20.875ZM342.162 36.3409C340.397 36.3409 338.87 35.9659 337.582 35.2159C336.302 34.4583 335.313 33.4053 334.616 32.0568C333.92 30.7008 333.571 29.1288 333.571 27.3409C333.571 25.5379 333.92 23.9621 334.616 22.6136C335.313 21.2576 336.302 20.2045 337.582 19.4545C338.87 18.697 340.397 18.3182 342.162 18.3182C343.927 18.3182 345.45 18.697 346.73 19.4545C348.018 20.2045 349.01 21.2576 349.707 22.6136C350.404 23.9621 350.753 25.5379 350.753 27.3409C350.753 29.1288 350.404 30.7008 349.707 32.0568C349.01 33.4053 348.018 34.4583 346.73 35.2159C345.45 35.9659 343.927 36.3409 342.162 36.3409ZM342.185 32.5909C342.988 32.5909 343.658 32.3636 344.196 31.9091C344.734 31.447 345.139 30.8182 345.412 30.0227C345.692 29.2273 345.832 28.322 345.832 27.3068C345.832 26.2917 345.692 25.3864 345.412 24.5909C345.139 23.7955 344.734 23.1667 344.196 22.7045C343.658 22.2424 342.988 22.0114 342.185 22.0114C341.374 22.0114 340.692 22.2424 340.139 22.7045C339.594 23.1667 339.181 23.7955 338.901 24.5909C338.628 25.3864 338.491 26.2917 338.491 27.3068C338.491 28.322 338.628 29.2273 338.901 30.0227C339.181 30.8182 339.594 31.447 340.139 31.9091C340.692 32.3636 341.374 32.5909 342.185 32.5909ZM358.741 12.7273V36H353.901V12.7273H358.741ZM367.46 12.7273V36H362.619V12.7273H367.46ZM379.293 36.3409C377.497 36.3409 375.952 35.9773 374.656 35.25C373.368 34.5152 372.376 33.4773 371.679 32.1364C370.982 30.7879 370.634 29.1932 370.634 27.3523C370.634 25.5568 370.982 23.9811 371.679 22.625C372.376 21.2689 373.357 20.2121 374.622 19.4545C375.895 18.697 377.387 18.3182 379.099 18.3182C380.251 18.3182 381.323 18.5038 382.315 18.875C383.315 19.2386 384.187 19.7879 384.929 20.5227C385.679 21.2576 386.262 22.1818 386.679 23.2955C387.096 24.4015 387.304 25.697 387.304 27.1818V28.5114H372.565V25.5114H382.747C382.747 24.8144 382.596 24.197 382.293 23.6591C381.99 23.1212 381.569 22.7008 381.031 22.3977C380.501 22.0871 379.884 21.9318 379.179 21.9318C378.444 21.9318 377.793 22.1023 377.224 22.4432C376.664 22.7765 376.224 23.2273 375.906 23.7955C375.588 24.3561 375.425 24.9811 375.418 25.6705V28.5227C375.418 29.3864 375.577 30.1326 375.895 30.7614C376.221 31.3902 376.679 31.875 377.27 32.2159C377.861 32.5568 378.562 32.7273 379.372 32.7273C379.91 32.7273 380.402 32.6515 380.849 32.5C381.296 32.3485 381.679 32.1212 381.997 31.8182C382.315 31.5152 382.558 31.1439 382.724 30.7045L387.202 31C386.974 32.0758 386.509 33.0152 385.804 33.8182C385.107 34.6136 384.205 35.2348 383.099 35.6818C382.001 36.1212 380.732 36.3409 379.293 36.3409ZM398.327 42.9091C396.759 42.9091 395.414 42.6932 394.293 42.2614C393.179 41.8371 392.293 41.2576 391.634 40.5227C390.974 39.7879 390.546 38.9621 390.349 38.0455L394.827 37.4432C394.963 37.7917 395.179 38.1174 395.474 38.4205C395.77 38.7235 396.16 38.9659 396.645 39.1477C397.137 39.3371 397.736 39.4318 398.44 39.4318C399.493 39.4318 400.361 39.1742 401.043 38.6591C401.732 38.1515 402.077 37.2992 402.077 36.1023V32.9091H401.872C401.66 33.3939 401.342 33.8523 400.918 34.2841C400.493 34.7159 399.948 35.0682 399.281 35.3409C398.615 35.6136 397.819 35.75 396.895 35.75C395.584 35.75 394.391 35.447 393.315 34.8409C392.247 34.2273 391.395 33.2917 390.759 32.0341C390.13 30.7689 389.815 29.1705 389.815 27.2386C389.815 25.2614 390.137 23.6098 390.781 22.2841C391.425 20.9583 392.281 19.9659 393.349 19.3068C394.425 18.6477 395.603 18.3182 396.884 18.3182C397.861 18.3182 398.679 18.4848 399.338 18.8182C399.997 19.1439 400.527 19.553 400.929 20.0455C401.338 20.5303 401.652 21.0076 401.872 21.4773H402.054V18.5455H406.861V36.1705C406.861 37.6553 406.497 38.8977 405.77 39.8977C405.043 40.8977 404.035 41.6477 402.747 42.1477C401.467 42.6553 399.993 42.9091 398.327 42.9091ZM398.429 32.1136C399.209 32.1136 399.868 31.9205 400.406 31.5341C400.952 31.1402 401.368 30.5795 401.656 29.8523C401.952 29.1174 402.099 28.2386 402.099 27.2159C402.099 26.1932 401.955 25.3068 401.668 24.5568C401.38 23.7992 400.963 23.2121 400.418 22.7955C399.872 22.3788 399.209 22.1705 398.429 22.1705C397.634 22.1705 396.963 22.3864 396.418 22.8182C395.872 23.2424 395.459 23.8333 395.179 24.5909C394.899 25.3485 394.759 26.2235 394.759 27.2159C394.759 28.2235 394.899 29.0947 395.179 29.8295C395.467 30.5568 395.88 31.1212 396.418 31.5227C396.963 31.9167 397.634 32.1136 398.429 32.1136ZM418.668 36.3409C416.872 36.3409 415.327 35.9773 414.031 35.25C412.743 34.5152 411.751 33.4773 411.054 32.1364C410.357 30.7879 410.009 29.1932 410.009 27.3523C410.009 25.5568 410.357 23.9811 411.054 22.625C411.751 21.2689 412.732 20.2121 413.997 19.4545C415.27 18.697 416.762 18.3182 418.474 18.3182C419.626 18.3182 420.698 18.5038 421.69 18.875C422.69 19.2386 423.562 19.7879 424.304 20.5227C425.054 21.2576 425.637 22.1818 426.054 23.2955C426.471 24.4015 426.679 25.697 426.679 27.1818V28.5114H411.94V25.5114H422.122C422.122 24.8144 421.971 24.197 421.668 23.6591C421.365 23.1212 420.944 22.7008 420.406 22.3977C419.876 22.0871 419.259 21.9318 418.554 21.9318C417.819 21.9318 417.168 22.1023 416.599 22.4432C416.039 22.7765 415.599 23.2273 415.281 23.7955C414.963 24.3561 414.8 24.9811 414.793 25.6705V28.5227C414.793 29.3864 414.952 30.1326 415.27 30.7614C415.596 31.3902 416.054 31.875 416.645 32.2159C417.236 32.5568 417.937 32.7273 418.747 32.7273C419.285 32.7273 419.777 32.6515 420.224 32.5C420.671 32.3485 421.054 32.1212 421.372 31.8182C421.69 31.5152 421.933 31.1439 422.099 30.7045L426.577 31C426.349 32.0758 425.884 33.0152 425.179 33.8182C424.482 34.6136 423.58 35.2348 422.474 35.6818C421.376 36.1212 420.107 36.3409 418.668 36.3409Z" fill="#272828"/>
<defs>
<clipPath id="clip0_1_137">
<rect width="41" height="47" fill="white"/>
</clipPath>
</defs>
</svg>
